<?xml version="1.0" encoding="UTF-8"?>
<svg xmlns="http://www.w3.org/2000/svg" viewBox="0 0 166.31 35.39">
  <defs>
    <style>.cls-1{fill:#005cff;}</style>
  </defs>
  <g id="Layer_2" data-name="Layer 2">
    <g id="Layer_1-2" data-name="Layer 1">
      <path d="M48.54,24.78h8.74V23H48.54a5.88,5.88,0,0,1-5.94-6.22,5.84,5.84,0,0,1,5.94-6.15h8.74V8.74H48.54a7.48,7.48,0,0,0-7.78,7.84C40.76,21.26,44.1,24.78,48.54,24.78Z"></path>
      <polygon points="77.08 8.74 70.08 17 69.97 16.86 63.11 8.74 60.61 8.74 69.06 18.62 69.06 24.78 70.89 24.78 70.89 18.62 79.37 8.74 77.08 8.74"></polygon>
      <path d="M100.47,14.31c0-3.49-2.14-5.57-5.72-5.57H83.24v16h1.81V10.58h9.7a3.65,3.65,0,0,1,4,3.83,3.66,3.66,0,0,1-4,3.85H88.43V20h6.32C98.28,20,100.47,17.82,100.47,14.31Z"></path>
      <path d="M120.17,24.78h2.25L113,9.19c-.3-.49-.56-.69-1-.69s-.67.2-1,.69l-9.37,15.59h2.07L112,11l4.86,8.17h-6l-.74,1.27h7.46Z"></path>
      <path d="M124.29,16.58c0,4.68,3.34,8.2,7.77,8.2h9.81V15.94h-9.62V17.3H140V23h-7.95a5.89,5.89,0,0,1-5.94-6.22,5.85,5.85,0,0,1,5.94-6.15h8.75V8.74h-8.75A7.47,7.47,0,0,0,124.29,16.58Z"></path>
      <path d="M158.47,8.74h-4.19a7.47,7.47,0,0,0-7.77,7.84c0,4.68,3.34,8.2,7.77,8.2h4.19c4.55,0,7.84-3.45,7.84-8.2A7.5,7.5,0,0,0,158.47,8.74Zm0,14.21h-4.19a5.89,5.89,0,0,1-5.94-6.22,5.85,5.85,0,0,1,5.94-6.15h4.19a5.88,5.88,0,0,1,6,6.15A5.92,5.92,0,0,1,158.47,23Z"></path>
      <path class="cls-1" d="M0,10.64,9.09,5.4a1.36,1.36,0,0,1,1.38,0l9.08,5.24v-2L10.47,3.42a1.36,1.36,0,0,0-1.38,0L0,8.67Z"></path>
      <path d="M30.7,24.66l-9.09,5.25a1.35,1.35,0,0,1-1.37,0l-9.09-5.25v2l9.09,5.25a1.35,1.35,0,0,0,1.37,0l9.09-5.25Z"></path>
      <path d="M10.12,9.4,1,14.65a1.37,1.37,0,0,0-.69,1.19v10.5l1.71,1V16.83a1.39,1.39,0,0,1,.69-1.19l9.09-5.25Z"></path>
      <path d="M23.6,17.92l1.71-1V6.44a1.36,1.36,0,0,0-.69-1.19L15.53,0,13.82,1l9.09,5.25a1.36,1.36,0,0,1,.69,1.19Z"></path>
      <path class="cls-1" d="M17.06,34.4,8,29.15A1.36,1.36,0,0,1,7.28,28V17.46l-1.71,1V29a1.39,1.39,0,0,0,.68,1.19l9.09,5.25Z"></path>
      <path class="cls-1" d="M28.82,8.06V18.55a1.39,1.39,0,0,1-.68,1.2L19.05,25l1.71,1,9.09-5.24a1.4,1.4,0,0,0,.69-1.2V9.05Z"></path>
    </g>
  </g>
</svg>
